<svg width="46" height="44" viewBox="0 0 46 44" fill="none" xmlns="http://www.w3.org/2000/svg">
<ellipse cx="23" cy="22" rx="23" ry="22" fill="#424242"/>
<path d="M28 12H18C15.2386 12 13 14.2386 13 17V27C13 29.7614 15.2386 32 18 32H28C30.7614 32 33 29.7614 33 27V17C33 14.2386 30.7614 12 28 12Z" stroke="white" stroke-width="2" stroke-linecap="round" stroke-linejoin="round"/>
<path d="M27 21.3698C27.1234 22.2021 26.9812 23.052 26.5937 23.7988C26.2062 24.5456 25.5931 25.1512 24.8416 25.5295C24.0901 25.9077 23.2384 26.0394 22.4077 25.9057C21.5771 25.7721 20.8097 25.3799 20.2148 24.785C19.6199 24.1901 19.2277 23.4227 19.094 22.592C18.9604 21.7614 19.092 20.9097 19.4703 20.1582C19.8485 19.4067 20.4541 18.7936 21.2009 18.4061C21.9477 18.0186 22.7977 17.8764 23.63 17.9998C24.4789 18.1257 25.2648 18.5213 25.8716 19.1281C26.4785 19.735 26.8741 20.5209 27 21.3698Z" stroke="white" stroke-width="2" stroke-linecap="round" stroke-linejoin="round"/>
<path d="M28.5 16.5H28.51" stroke="white" stroke-width="2" stroke-linecap="round" stroke-linejoin="round"/>
</svg>
