<svg width="95" height="85" viewBox="0 0 95 85" fill="none" xmlns="http://www.w3.org/2000/svg">
<rect x="7" y="3" width="76" height="53" rx="7" stroke="#D1D5DB" stroke-width="6"/>
<circle cx="34.5" cy="39.5" r="4.5" fill="#D1D5DB"/>
<circle cx="34.5" cy="18.5" r="4.5" fill="#D1D5DB"/>
<circle cx="58.5" cy="29.5" r="4.5" fill="#D1D5DB"/>
<line x1="34.5" y1="37.7939" x2="34.5" y2="21" stroke="#D1D5DB" stroke-width="3"/>
<line x1="56.3908" y1="27.3707" x2="38.3908" y2="19.3707" stroke="#D1D5DB" stroke-width="3"/>
<line x1="57.6146" y1="30.3683" x2="37.6146" y2="39.3516" stroke="#D1D5DB" stroke-width="3"/>
<path d="M1.4 80V66H8.02C9.56667 66 10.9267 66.2867 12.1 66.86C13.2733 67.4333 14.1867 68.24 14.84 69.28C15.5067 70.32 15.84 71.56 15.84 73C15.84 74.4267 15.5067 75.6667 14.84 76.72C14.1867 77.76 13.2733 78.5667 12.1 79.14C10.9267 79.7133 9.56667 80 8.02 80H1.4ZM5.36 76.84H7.86C8.66 76.84 9.35333 76.6933 9.94 76.4C10.54 76.0933 11.0067 75.6533 11.34 75.08C11.6733 74.4933 11.84 73.8 11.84 73C11.84 72.1867 11.6733 71.4933 11.34 70.92C11.0067 70.3467 10.54 69.9133 9.94 69.62C9.35333 69.3133 8.66 69.16 7.86 69.16H5.36V76.84ZM16.0481 80L22.2281 66H26.1281L32.3281 80H28.2081L23.3681 67.94H24.9281L20.0881 80H16.0481ZM19.4281 77.28L20.4481 74.36H27.2881L28.3081 77.28H19.4281ZM35.7277 80V69.14H31.4277V66H43.9677V69.14H39.6877V80H35.7277ZM43.0598 80L49.2398 66H53.1398L59.3398 80H55.2198L50.3798 67.94H51.9398L47.0998 80H43.0598ZM46.4398 77.28L47.4598 74.36H54.2998L55.3198 77.28H46.4398ZM60.4625 80V66H63.7225L69.5225 75.52H67.8025L73.4425 66H76.7025L76.7425 80H73.1025L73.0625 71.54H73.6825L69.4625 78.62H67.7025L63.3625 71.54H64.1225V80H60.4625ZM77.8645 80L84.0445 66H87.9445L94.1445 80H90.0245L85.1845 67.94H86.7445L81.9045 80H77.8645ZM81.2445 77.28L82.2645 74.36H89.1045L90.1245 77.28H81.2445Z" fill="#D1D5DB"/>
</svg>
