<svg width="46" height="44" viewBox="0 0 46 44" fill="none" xmlns="http://www.w3.org/2000/svg">
<ellipse cx="23" cy="22" rx="23" ry="22" fill="#424242"/>
<path d="M34 13.0101C33.0424 13.6855 31.9821 14.2022 30.86 14.5401C30.2577 13.8476 29.4573 13.3567 28.567 13.134C27.6767 12.9112 26.7395 12.9673 25.8821 13.2945C25.0247 13.6218 24.2884 14.2045 23.773 14.9638C23.2575 15.7231 22.9877 16.6224 23 17.5401V18.5401C21.2426 18.5856 19.5013 18.1959 17.931 17.4055C16.3607 16.6151 15.0103 15.4487 14 14.0101C14 14.0101 10 23.0101 19 27.0101C16.9405 28.408 14.4872 29.109 12 29.0101C21 34.0101 32 29.0101 32 17.5101C31.9991 17.2315 31.9723 16.9537 31.92 16.6801C32.9406 15.6735 33.6608 14.4028 34 13.0101V13.0101Z" stroke="white" stroke-width="2" stroke-linecap="round" stroke-linejoin="round"/>
</svg>
